# xmcd
#
# Track frame offsets:
#	150
#	11828
#	22864
#	37376
#	54676
#	74022
#	87889
#	98487
#	110767
#	125400
#	134771
#	146447
#	159779
#	172053
#	182774
#	194992
#	206381
#	217017
#	227050
#	237646
#
# Disc length: 3346 seconds
#
# Revision: 0
# Processed by: cddbd v1.5.2PL0 Copyright (c) Steve Scherf et al.
# Submitted via: EasyCDDAExtractor 9.1.0.1
#
DISCID=330d1014
DTITLE=Crystal Gayle - Best Of Crystal Gayle Disc 1
DYEAR=2005
DGENRE=Vocal
TTITLE0=Don't It Make My Brown Eyes Blue
TTITLE1=Somebody Loves You
TTITLE2=Cry Me A River
TTITLE3=Someday Soon
TTITLE4=More Than Love
TTITLE5=River Road
TTITLE6=High Time
TTITLE7=You'll Be Loved Someday
TTITLE8=Don't Treat Me Like A Stranger
TTITLE9=Let's Do It Right
TTITLE10=Sweet Baby On My Mind
TTITLE11=Loving You So Long Now
TTITLE12=You're The Best Thing In My Life
TTITLE13=Lay Back Lover
TTITLE14=Through Believing In Love Songs
TTITLE15=Coming Closer
TTITLE16=Sneakin' Out The Back Door
TTITLE17=Wrong Road Again
TTITLE18=I Want To Lose Me In You
TTITLE19=Why Have You Left The One You Left For Me
EXTD=
EXTT0=
EXTT1=
EXTT2=
EXTT3=
EXTT4=
EXTT5=
EXTT6=
EXTT7=
EXTT8=
EXTT9=
EXTT10=
EXTT11=
EXTT12=
EXTT13=
EXTT14=
EXTT15=
EXTT16=
EXTT17=
EXTT18=
EXTT19=
PLAYORDER=
